<?xml version="1.0" encoding="UTF-8" standalone="no"?>
<svg
   xmlns:dc="http://purl.org/dc/elements/1.1/"
   xmlns:cc="http://creativecommons.org/ns#"
   xmlns:rdf="http://www.w3.org/1999/02/22-rdf-syntax-ns#"
   xmlns:svg="http://www.w3.org/2000/svg"
   xmlns="http://www.w3.org/2000/svg"
   id="svg8"
   version="1.1"
   viewBox="0 0 75.407784 52.932125"
   height="52.932125mm"
   width="75.407784mm">
  <defs
     id="defs2" />
  <metadata
     id="metadata5">
    <rdf:RDF>
      <cc:Work
         rdf:about="">
        <dc:format>image/svg+xml</dc:format>
        <dc:type
           rdf:resource="http://purl.org/dc/dcmitype/StillImage" />
        <dc:title></dc:title>
      </cc:Work>
    </rdf:RDF>
  </metadata>
  <g
     transform="translate(-52.876238,-33.586842)"
     id="layer1">
    <path
       id="path882"
       d="m 52.877525,84.298736 c 0,-2.22023 0,-2.22023 1.03717,-2.63522 0.57044,-0.22825 2.6838,-1.17886 4.69635,-2.11247 2.01256,-0.93362 4.84981,-2.0862 6.30502,-2.56131 5.06042,-1.65215 7.13685,-3.11162 9.66754,-6.79507 0.78003,-1.13533 1.99444,-2.82156 2.69869,-3.74717 0.70426,-0.925613 1.69967,-2.566318 2.21203,-3.646011 0.77634,-1.635988 1.21473,-2.185612 2.63106,-3.298662 1.21232,-0.952729 2.25366,-2.144998 3.63268,-4.1592 2.18345,-3.189161 3.35515,-4.149001 6.20688,-5.084562 0.98489,-0.323111 2.25955,-0.809783 2.83259,-1.081493 1.2057,-0.571692 1.20707,-0.571977 1.20707,-0.249753 0,0.134345 -0.80367,0.778823 -1.78593,1.432171 -1.12564,0.748711 -2.67306,2.199105 -4.18536,3.922924 -4.79643,5.467281 -5.98297,7.303751 -7.43527,11.508026 -0.6906,1.9992 -1.43132,3.4725 -2.67942,5.32939 -0.94873,1.41149 -2.35206,3.49701 -3.1185,4.63448 -0.76645,1.13747 -1.94198,2.65445 -2.61229,3.37107 -0.67031,0.71661 -1.46021,1.86624 -1.75532,2.55471 -0.29512,0.68848 -1.18431,1.93087 -1.97599,2.76086 -0.79168,0.82999 -1.43942,1.63697 -1.43942,1.7933 0,0.18832 -1.18292,0.28394 -3.50572,0.28338 -3.50573,-7.9e-4 -3.50573,-7.9e-4 -1.92063,-1.05468 0.8718,-0.57962 2.17633,-1.26385 2.89896,-1.52052 0.73888,-0.26244 1.66624,-0.85682 2.11907,-1.35818 0.44286,-0.49033 1.3488,-1.44283 2.0132,-2.11666 0.66439,-0.67384 1.67203,-1.88 2.23919,-2.68037 0.56716,-0.80036 1.46671,-1.99099 1.999,-2.64583 0.5323,-0.65485 1.38432,-1.84547 1.8934,-2.64584 0.79769,-1.25414 0.29974,-0.83993 -3.60388,2.9978 -2.4912,2.44915 -5.21187,4.96797 -6.04592,5.59737 -1.6291,1.22936 -4.83474,2.57941 -7.61167,3.20563 -2.29645,0.51787 -3.00876,0.82044 -3.72415,1.58194 -0.45642,0.48583 -0.87736,0.64018 -1.74592,0.64018 -1.14451,0 -1.14451,0 -1.14451,-2.22023 z m 19.61334,-0.35946 c 1.37245,-1.41882 3.19824,-3.47265 4.05732,-4.56406 0.85908,-1.0914 2.24111,-2.69875 3.07119,-3.57187 1.23488,-1.29894 1.87531,-2.35825 3.52327,-5.82769 1.10773,-2.33211 2.01405,-4.489002 2.01405,-4.793101 0,-0.845357 1.72654,-4.108887 2.63342,-4.977739 0.80616,-0.772351 0.80616,-0.772351 0.80203,0.269338 -0.002,0.572929 -0.17663,1.756063 -0.38745,2.629188 -0.21083,0.873125 -0.38756,2.255859 -0.39274,3.072744 -0.0195,3.07453 -0.7412,5.17763 -4.12173,12.01133 -0.64865,1.31124 -1.17937,2.53163 -1.17937,2.71198 0,0.5999 1.00339,0.33891 2.19555,-0.57109 1.60512,-1.22521 1.96597,-1.38623 3.493,-1.55863 0.7276,-0.0821 2.24527,-0.58785 3.37259,-1.1238 2.04967,-0.97444 2.04967,-0.97444 5.02708,-0.77478 2.03075,0.13618 2.7671,0.26418 2.31595,0.40259 -0.3638,0.11161 -2.20927,0.68211 -4.10104,1.26778 -1.89177,0.58567 -4.63021,1.42455 -6.08542,1.86417 -1.45521,0.43963 -3.06255,1.11488 -3.57187,1.50057 -0.50932,0.38568 -1.91532,1.16239 -3.12443,1.72601 -1.20911,0.56362 -2.71807,1.45061 -3.35324,1.97108 -1.01952,0.83542 -1.30201,0.93677 -2.4106,0.86485 -1.25575,-0.0815 -1.25575,-0.0815 0.72656,-1.80126 2.51669,-2.18341 3.50542,-3.47359 4.03069,-5.25955 0.2302,-0.7827 0.55644,-1.58925 0.72498,-1.79233 0.58673,-0.70697 0.0629,-0.60115 -0.88274,0.17832 -0.52361,0.43161 -1.63144,1.8273 -2.46184,3.10154 -0.8304,1.27425 -2.23739,3.06095 -3.12665,3.97046 -1.61682,1.65364 -1.61682,1.65364 -3.45037,1.65364 -1.83354,0 -1.83354,0 0.66181,-2.57969 z m 8.03562,2.03529 c 1.42619,-0.97189 3.31592,-1.85712 5.84719,-2.73904 2.97038,-1.03492 3.29125,-0.71132 0.83354,0.84064 -3.091,1.95185 -4.28689,2.44295 -5.94433,2.44106 -1.53015,-0.002 -1.53015,-0.002 -0.7364,-0.54266 z m 5.02708,0.14987 c 0.43657,-0.19335 1.74625,-0.4907 2.91042,-0.66078 1.16417,-0.17007 3.36682,-0.73264 4.89479,-1.25016 2.77813,-0.94093 2.77813,-0.94093 8.995845,-0.78578 3.41973,0.0853 8.47989,0.0497 11.24479,-0.0793 5.24291,-0.24447 6.78712,-0.53931 9.18547,-1.75379 0.90983,-0.46072 1.68521,-0.63195 2.86167,-0.63195 0.88753,0 1.84398,-0.12325 2.12546,-0.27389 0.4797,-0.25673 0.51177,-0.17381 0.51177,1.32292 0,0.87824 -0.0298,1.60096 -0.0661,1.60604 -1.17487,0.16395 -4.52453,0.90196 -6.01927,1.32619 -1.91078,0.5423 -2.26897,0.55497 -9.6573,0.34149 -4.2201,-0.12194 -9.63744,-0.21338 -12.03854,-0.20321 -4.033945,0.0171 -4.517905,0.0724 -6.369895,0.72761 -1.82352,0.64515 -2.33651,0.70717 -5.68854,0.68761 -3.29618,-0.0192 -3.60066,-0.0585 -2.89053,-0.37304 z m 10.92106,0.20046 c 0.62231,-0.0559 1.57481,-0.0551 2.11667,0.002 0.54185,0.0568 0.0327,0.10258 -1.13148,0.10162 -1.16416,-0.001 -1.6075,-0.0475 -0.98519,-0.10337 z m 11.634675,0.0188 c 0.1819,-0.0734 0.47956,-0.0734 0.66146,0 0.1819,0.0734 0.0331,0.13345 -0.33073,0.13345 -0.3638,0 -0.51263,-0.0601 -0.33073,-0.13345 z m 13.69219,-0.22818 c 0.87313,-0.19264 1.93143,-0.48168 2.3518,-0.64229 1.09645,-0.41893 1.16771,-0.13415 0.12544,0.50128 -0.65469,0.39914 -1.30912,0.53568 -2.47724,0.51686 -1.5875,-0.0256 -1.5875,-0.0256 0,-0.37585 z m 4.64495,-0.27723 c 1.72283,-1.28675 1.83734,-1.30262 1.83734,-0.25471 0,0.93535 0,0.93535 -1.37432,0.93535 -1.37432,0 -1.37432,0 -0.46302,-0.68063 z m -35.998085,-3.00618 c -0.35277,-0.2506 -0.35277,-0.31089 0,-0.5426 0.21829,-0.14338 0.99219,-0.45446 1.7198,-0.6913 0.7276,-0.23684 1.8188,-0.71393 2.42489,-1.06021 0.60609,-0.34627 1.73718,-0.7584 2.51354,-0.91584 0.77636,-0.15743 2.48313,-0.81519 3.792825,-1.46168 2.26568,-1.11839 2.59312,-1.20057 6.74687,-1.6932 9.91741,-1.17621 15.66069,-2.6847 19.52889,-5.12934 1.14034,-0.72068 1.14034,-0.72068 1.05833,0.4162 -0.0766,1.06238 -0.17447,1.192 -1.49304,1.9783 -1.53252,0.91388 -9.51932,3.58056 -12.08272,4.03424 -0.87312,0.15453 -3.36348,0.40624 -5.53413,0.55936 -3.05281,0.21534 -4.43101,0.44057 -6.08541,0.99449 -2.13879,0.71611 -2.13879,0.71611 -0.96911,0.79968 0.64333,0.046 1.95302,-0.0977 2.91042,-0.31931 0.9574,-0.22158 2.27651,-0.476 2.93136,-0.56539 0.65484,-0.0894 2.02406,-0.3218 3.0427,-0.51647 1.01865,-0.19468 3.04271,-0.43551 4.49792,-0.53519 3.56621,-0.24427 4.2185,-0.48058 12.63385,-4.577 0.10915,-0.0531 0.19843,0.41934 0.19842,1.04993 -1e-5,1.07643 -0.1,1.23276 -1.63489,2.55696 -1.61615,1.39428 -5.45784,3.51 -8.02238,4.41813 -0.99026,0.35066 -2.28763,0.48389 -5.15937,0.52984 -2.11006,0.0338 -4.76288,0.20321 -5.89516,0.37657 -1.74013,0.26641 -2.34562,0.24992 -3.91283,-0.10653 -1.68983,-0.38435 -2.08182,-0.38498 -4.423595,-0.007 -3.40381,0.54916 -8.27008,0.77484 -8.78718,0.40752 z m -37.57083,-3.14583 c 0,-1.53827 -0.16695,-1.4352 3.30171,-2.03844 1.30662,-0.22724 3.18185,-0.69352 4.16719,-1.03619 0.98533,-0.34266 1.79152,-0.52863 1.79152,-0.41326 0,0.11537 -0.14883,0.27344 -0.33073,0.35128 -0.1819,0.0778 -1.32417,0.56097 -2.53838,1.07363 -1.2142,0.51265 -2.82155,1.40497 -3.57187,1.98292 -0.75033,0.57795 -1.69165,1.1325 -2.09183,1.23232 -0.72153,0.17999 -0.72761,0.17037 -0.72761,-1.15226 z m 32.71625,-1.96474 c 0.11205,-0.18191 0.69982,-1.04511 1.30614,-1.91823 2.12481,-3.0598 3.28386,-6.07148 3.28386,-8.5328 0,-1.27484 0.68366,-2.816445 1.6279,-3.670829 0.34158,-0.309076 1.33543,-1.018776 2.20856,-1.57711 0.87312,-0.558335 2.30187,-1.683502 3.175,-2.500371 0.87312,-0.81687 2.837665,-2.323078 4.365635,-3.347128 1.52796,-1.02405 4.08781,-3.099808 5.68854,-4.612794 1.60073,-1.512987 3.74385,-3.338362 4.7625,-4.05639 1.01864,-0.718028 2.38786,-1.745484 3.04271,-2.283235 1.54387,-1.267818 2.68475,-1.830805 3.71005,-1.830805 0.45426,0 1.32338,-0.283682 1.93137,-0.630404 0.74213,-0.423215 1.72339,-0.683535 2.98563,-0.792061 1.03409,-0.08891 2.38852,-0.341011 3.00982,-0.560221 0.62131,-0.219211 1.23375,-0.398564 1.36097,-0.398564 0.12723,0 0.23132,0.892968 0.23132,1.984375 0,1.984375 0,1.984375 -0.90354,1.984375 -0.54723,0 -1.70406,0.424125 -2.93347,1.075491 -1.28799,0.682404 -2.77095,1.21721 -4.05739,1.463234 -2.22892,0.426269 -3.60122,1.150774 -6.87512,3.629723 -1.11733,0.846032 -2.95021,1.998392 -4.07306,2.560799 -2.54192,1.273184 -3.71544,2.078137 -7.10258,4.871867 -1.47655,1.217871 -3.895765,2.935757 -5.376025,3.817526 -3.65871,2.179434 -4.42553,3.096488 -4.79626,5.735882 -0.12738,0.90693 -0.64395,2.08614 -1.65228,3.77176 -0.80683,1.34877 -1.39606,2.52321 -1.30941,2.60986 0.22564,0.22564 1.8692,-0.84084 3.51403,-2.2802 1.33338,-1.16681 2.82031,-1.85594 4.00454,-1.85594 0.2887,0 1.0119,-0.35277 1.6071,-0.78393 0.5952,-0.43117 1.864605,-1.1387 2.820895,-1.5723 0.95628,-0.4336 2.24333,-1.19709 2.86011,-1.69666 1.40879,-1.141055 2.17351,-1.51929 4.86407,-2.4058 1.56371,-0.515221 3.05698,-1.316186 5.44126,-2.918611 1.80736,-1.214685 4.15095,-2.644048 5.20799,-3.176365 1.7562,-0.884406 8.02237,-3.321336 8.54029,-3.321336 0.12037,0 0.21885,0.941278 0.21885,2.091728 0,2.091728 0,2.091728 -1.77979,2.924595 -0.97889,0.458077 -2.5006,1.288095 -3.38159,1.844487 -2.04077,1.288867 -5.10449,2.832867 -7.14631,3.601477 -0.87563,0.329618 -3.73313,1.653335 -6.35,2.941605 -7.55448,3.71901 -11.788605,5.57393 -13.405635,5.87285 -0.82546,0.1526 -2.4534,0.75639 -3.61766,1.34177 -2.3875,1.20041 -6.47039,2.92941 -6.91757,2.92941 -0.16841,0 -0.20768,-0.14204 -0.0914,-0.33073 z m -32.71625,-2.80589 c 0,-1.87542 0,-1.87542 2.28081,-2.964 2.81302,-1.3426 5.12213,-3.56232 7.24419,-6.963751 3.29001,-5.27352 4.13999,-5.977765 8.19628,-6.790925 2.05249,-0.411463 3.35016,-0.859647 5.02216,-1.734544 2.09981,-1.098748 2.91217,-1.183886 2.11346,-0.221496 -0.70468,0.849087 -5.24666,4.0447 -7.12982,5.016343 -2.23691,1.154173 -5.32022,4.045341 -6.90664,6.476233 -1.30716,2.00299 -2.41494,4.49792 -1.99713,4.49792 0.95721,0 13.07856,-11.384157 15.71746,-14.761559 1.18403,-1.515379 2.09336,-2.393031 2.94033,-2.837897 1.64706,-0.865099 1.94622,-1.128883 2.77773,-2.449217 0.45493,-0.722374 1.3684,-1.55155 2.52845,-2.295124 0.99892,-0.640286 2.35541,-1.57574 3.01443,-2.078785 0.67249,-0.513322 1.81404,-1.062358 2.60174,-1.251324 2.07571,-0.497954 6.68122,-2.733068 8.67077,-4.208027 0.957775,-0.710054 2.872505,-2.202125 4.254955,-3.315712 1.44569,-1.164532 3.57138,-2.551669 5.00351,-3.265092 2.48998,-1.240387 2.48998,-1.240387 9.12813,-1.253605 5.59547,-0.01114 6.82,-0.08387 7.7959,-0.463021 2.08559,-0.81029 2.14954,-0.757994 2.14954,1.757809 0,2.207611 0,2.207611 -2.3151,2.665755 -1.27331,0.25198 -3.32714,0.562439 -4.56406,0.68991 -1.99528,0.205622 -2.60711,0.412628 -5.42396,1.835122 -1.74625,0.881846 -3.3536,1.602118 -3.57188,1.600604 -0.85745,-0.0059 -3.68239,1.612237 -5.83042,3.339778 -1.2422,0.999035 -3.20673,2.343789 -4.36562,2.988342 -5.403385,3.005243 -5.859255,3.32734 -8.888085,6.279837 -1.69226,1.64961 -3.20361,2.999291 -3.35856,2.999291 -0.27406,0 0.50513,-2.053929 1.11698,-2.944351 0.16281,-0.236945 1.00934,-0.999111 1.88118,-1.693701 0.87183,-0.694589 2.41858,-2.060488 3.43723,-3.03533 1.01865,-0.974842 2.58402,-2.323607 3.47861,-2.997254 0.894605,-0.673648 2.293455,-1.984434 3.108555,-2.912858 1.14637,-1.305722 2.02247,-1.975055 3.86822,-2.95527 1.31241,-0.696975 2.33256,-1.320871 2.26699,-1.386435 -0.44032,-0.440322 -8.98828,3.874193 -12.805985,6.463714 -2.25917,1.53238 -2.58186,1.671901 -3.86692,1.671901 -1.58786,0 -2.39851,0.484449 -3.32841,1.989074 -0.55539,0.898629 -4.01611,4.029284 -7.8534,7.104381 -1.21485,0.973553 -2.67411,2.547443 -4.03481,4.351784 -6.81267,9.03385 -7.50559,9.85029 -9.02483,10.63373 -0.89627,0.46219 -4.44516,1.46542 -11.09865,3.13746 -1.67348,0.42056 -3.31059,0.85263 -3.63802,0.96018 -0.57976,0.19042 -0.59531,0.14653 -0.59531,-1.67989 z m 44.71458,1.13485 c 0,-0.94872 1.4558,-1.91427 4.710815,-3.12443 1.31785,-0.48996 3.13424,-1.38374 4.03641,-1.98619 0.90839,-0.6066 2.48088,-1.33876 3.52415,-1.64085 1.03611,-0.30002 2.77681,-0.9489 3.86822,-1.44197 1.0914,-0.49306 3.2765,-1.42834 4.85577,-2.0784 1.57927,-0.650053 3.85607,-1.785769 5.05957,-2.523808 1.77265,-1.087073 4.0009,-2.135921 4.53772,-2.135921 0.0545,0 0.099,0.703266 0.099,1.562809 0,1.56281 0,1.56281 -2.05052,2.407217 -1.12779,0.464426 -2.59121,1.186373 -3.25206,1.604333 -2.52666,1.598 -8.99623,4.42346 -12.29221,5.36837 -1.32292,0.37926 -1.32292,0.37926 -0.13229,0.40053 0.74455,0.0133 1.78538,-0.23862 2.77812,-0.67241 0.87313,-0.38153 3.38184,-1.30144 5.57491,-2.04425 3.46575,-1.17387 4.28505,-1.56691 6.2625,-3.00431 3.20272,-2.328046 3.11155,-2.321609 3.11155,-0.21967 0,1.7123 -0.0274,1.7824 -1.12448,2.8776 -0.87983,0.87831 -1.75769,1.36587 -4.03489,2.24095 -5.47678,2.10463 -8.95851,2.77332 -16.80104,3.22674 -3.10409,0.17946 -5.26136,0.44332 -6.545095,0.80052 -2.10529,0.5858 -2.18617,0.59998 -2.18617,0.38314 z m -44.71458,-5.90815 c 0,-0.6253 0.23107,-0.91333 1.25677,-1.56657 0.69123,-0.44022 1.96457,-0.98317 2.82965,-1.20655 0.86509,-0.22338 1.91885,-0.66192 2.34169,-0.97454 0.7688,-0.56841 0.7688,-0.56841 0.57755,0.0545 -0.28267,0.9206 -0.6252,1.25956 -1.96196,1.94147 -0.66398,0.33872 -1.91461,1.04381 -2.77918,1.56687 -1.91465,1.15835 -2.26452,1.1869 -2.26452,0.18484 z m 40.74583,-2.09793 c 0,-0.48396 1.51983,-1.37774 3.47158,-2.04158 1.80309,-0.613269 4.630005,-2.462034 4.919935,-3.217579 0.0719,-0.187396 1.7301,-1.74031 3.68488,-3.450921 1.95477,-1.71061 4.25972,-3.730558 5.12212,-4.488774 1.23542,-1.086179 1.97685,-1.499815 3.49568,-1.950198 1.06023,-0.314394 2.93972,-1.078364 4.17665,-1.697712 1.23693,-0.619348 3.61818,-1.562038 5.29167,-2.094866 1.67348,-0.532829 3.37453,-1.078609 3.7801,-1.212844 0.7374,-0.244065 0.7374,-0.244065 0.66146,2.17631 -0.0759,2.420375 -0.0759,2.420375 -1.39886,2.759906 -0.7276,0.186741 -2.81119,0.585337 -4.6302,0.885767 -6.58106,1.086936 -8.37455,2.019069 -13.22985,6.875976 -2.8319,2.832843 -4.06608,3.860842 -5.95312,4.958612 -2.32859,1.354633 -3.075985,1.591843 -6.746205,2.141093 -0.94589,0.14155 -1.92815,0.34159 -2.18281,0.44453 -0.26395,0.10669 -0.46303,0.069 -0.46303,-0.0877 z m -40.74583,-4.626471 c 0,-4.051022 0,-4.051022 1.25677,-4.360931 0.69123,-0.170451 1.99092,-0.422859 2.88821,-0.560908 0.89729,-0.13805 2.02839,-0.455616 2.51354,-0.705702 1.81841,-0.937342 5.98217,-3.791378 8.02586,-5.501286 2.24179,-1.875663 2.40435,-1.991274 6.74687,-4.798288 3.11604,-2.014215 7.73421,-4.36353 8.57761,-4.36353 0.3051,0 1.11387,0.297656 1.79727,0.661459 0.6834,0.363802 1.57542,0.658632 1.98227,0.655178 2.57932,-0.0219 10.10528,-4.758104 14.778125,-9.300109 1.60298,-1.558095 1.60298,-1.558095 5.00814,-1.483665 3.40517,0.07443 3.40517,0.07443 -1.33839,3.768005 -2.60896,2.031467 -5.253075,3.978366 -5.875815,4.326443 -0.69878,0.390581 -2.21818,0.816653 -3.96875,1.112924 -3.19307,0.540404 -3.84509,0.750452 -5.28269,1.701806 -0.55595,0.367914 -1.76227,0.963425 -2.68071,1.323357 -1.17395,0.460067 -2.23216,1.171301 -3.56316,2.394838 -3.33787,3.068383 -6.61872,5.675859 -7.97869,6.341125 -0.96202,0.470597 -1.97253,0.693581 -3.70417,0.817377 -1.47962,0.105779 -2.79466,0.363416 -3.4731,0.680433 -1.04261,0.487184 -1.57416,0.986022 -5.3741,5.043325 -1.14572,1.223323 -2.2837,2.104129 -3.68159,2.849587 -1.11281,0.593431 -2.97579,1.610852 -4.13996,2.260943 -1.16416,0.65008 -2.20596,1.18347 -2.3151,1.18531 -0.10914,0.002 -0.19844,-1.819629 -0.19844,-4.047691 z m 36.25953,1.134743 c -0.0101,-1.505797 0.0831,-1.842887 0.73145,-2.645834 0.40869,-0.506097 0.94439,-1.45596 1.19045,-2.110803 0.66525,-1.770423 2.33549,-3.57488 3.82397,-4.131258 0.68969,-0.257798 1.61116,-0.730861 2.04773,-1.05125 0.43656,-0.32039 1.84246,-1.089499 3.124225,-1.709133 1.73409,-0.838298 2.58045,-1.432491 3.30729,-2.321891 0.67774,-0.829307 1.50038,-1.433153 2.68678,-1.972169 0.94523,-0.429445 2.1285,-1.229095 2.64583,-1.788036 0.92061,-0.994655 3.97859,-2.593635 3.97859,-2.080355 0,0.608104 -2.72359,2.91171 -5.08731,4.302829 -2.05543,1.209689 -3.00985,2.001693 -4.96335,4.11874 -1.37685,1.492123 -3.294495,3.222123 -4.452195,4.016557 -2.6992,1.852233 -7.38662,5.701296 -7.90319,6.489675 -0.22667,0.345958 -0.57111,1.074417 -0.7654,1.618797 -0.35325,0.989789 -0.35325,0.989789 -0.36487,-0.735869 z m -35.00276,-6.930729 c -1.25677,-0.264403 -1.25677,-0.264403 -1.25677,-1.787057 0,-1.522653 0,-1.522653 1.76243,-1.664124 2.33735,-0.18762 5.46358,-1.763929 8.19056,-4.129852 4.63793,-4.023865 7.09858,-5.421915 11.4256,-6.491609 3.28299,-0.811596 4.38733,-1.281982 7.10984,-3.028404 3.32597,-2.133519 4.62076,-2.621826 7.80398,-2.943137 3.30184,-0.333285 4.80148,-0.805657 8.35888,-2.632968 1.43748,-0.738379 2.953505,-1.342508 3.368945,-1.342508 0.75535,0 0.75535,0 0.11391,0.683348 -1.922535,2.048163 -4.755855,3.30194 -10.960185,4.850015 -4.15383,1.036443 -5.19959,1.419736 -7.34238,2.691134 -0.98237,0.582877 -2.58971,1.361097 -3.57187,1.729378 -0.98216,0.368281 -2.91684,1.261105 -4.29929,1.984053 -2.62908,1.374871 -9.55538,6.151702 -11.79371,8.133718 -2.369,2.097721 -5.28817,3.836745 -6.85942,4.086331 -0.43656,0.06935 -1.35929,0.0071 -2.05052,-0.138318 z m 0.59531,-4.881324 c -1.66016,-0.261491 -1.85208,-0.363082 -1.85208,-0.980387 0,-1.233004 5.14716,-4.441776 8.29848,-5.173328 0.74395,-0.1727 1.75922,-0.685695 2.40605,-1.21573 0.61547,-0.504328 2.17943,-1.40647 3.47548,-2.004761 1.29605,-0.59829 3.01129,-1.55151 3.81166,-2.118267 2.25293,-1.595355 5.74234,-3.887517 6.56812,-4.314546 0.4099,-0.211966 1.7489,-0.63945 2.97555,-0.949966 1.22666,-0.310515 3.19475,-0.976383 4.37354,-1.479705 2.14325,-0.915132 2.14325,-0.915132 6.48229,-0.842243 4.33904,0.07289 4.33904,0.07289 1.95779,0.830305 -9.27419,2.949885 -9.54067,3.058086 -11.29769,4.587349 -2.79391,2.431751 -5.91181,3.695732 -12.3139,4.99201 -1.82703,0.369932 -3.75075,0.895301 -4.27494,1.167486 -0.52418,0.272185 -1.96508,1.528656 -3.20201,2.792158 -1.23693,1.263501 -2.60615,2.522077 -3.04271,2.796835 -0.73013,0.459519 -0.74603,0.49964 -0.19844,0.50055 0.96579,0.0016 0.68035,0.357308 -0.79826,0.994772 -1.32824,0.57263 -1.91903,0.64584 -3.36893,0.417468 z m -1.84256,-4.613259 c -0.01,-1.7468 -0.01,-1.7468 1.82114,-3.861804 3.81455,-4.407034 6.67756,-6.181284 11.89376,-7.370735 4.49355,-1.024663 5.5506,-1.406084 6.65043,-2.399721 0.77011,-0.695748 1.21477,-0.891245 2.01451,-0.885698 1.02627,0.0071 1.02627,0.0071 0.10022,0.784582 -1.50551,1.263968 -3.79019,2.362803 -7.36026,3.539985 -3.30101,1.08846 -6.64363,2.817153 -8.65819,4.477717 -0.51177,0.42185 -1.90925,1.963742 -3.1055,3.426426 -3.74948,4.584572 -3.34511,4.308751 -3.35611,2.289248 z m 4.87439,-1.842679 c -0.0959,-0.155202 -0.13271,-0.313912 -0.0818,-0.352689 0.051,-0.03878 0.80702,-0.498614 1.68014,-1.021861 0.87313,-0.523247 2.20913,-1.598252 2.96889,-2.388901 1.41923,-1.476924 1.67455,-1.592241 5.04752,-2.279776 2.02674,-0.413124 3.98528,-1.420354 5.72913,-2.946353 2.14673,-1.878554 5.93125,-3.746133 7.37777,-3.640771 1.10169,0.08025 1.10169,0.08025 -0.67914,1.092352 -0.97946,0.556659 -2.21558,1.132144 -2.74693,1.278857 -0.53135,0.146712 -1.51591,0.771201 -2.18791,1.387752 -1.80829,1.659068 -2.47499,2.060176 -6.23759,3.752712 -1.88554,0.848177 -4.50492,2.249748 -5.82083,3.114603 -3.26522,2.145988 -4.62743,2.686654 -5.04929,2.004075 z m -4.88391,-4.77725 c 0,-1.713718 0,-1.713718 2.08946,-3.092165 3.81776,-2.518643 5.56124,-3.101009 10.47937,-3.500373 1.95075,-0.158406 4.03601,-0.494517 4.92408,-0.793686 2.17061,-0.731226 2.61327,-0.700079 1.83433,0.129068 -0.85879,0.914134 -2.54934,1.419033 -6.36266,1.90026 -5.55244,0.700699 -7.1886,1.451425 -10.78177,4.947055 -2.18281,2.123559 -2.18281,2.123559 -2.18281,0.409841 z m 0,-5.011249 c 0,-2.816786 0.0736,-2.874468 3.68414,-2.885483 2.7581,-0.0084 2.7581,-0.0084 2.11667,0.678222 -0.35279,0.37765 -1.17721,0.993943 -1.83206,1.36954 -0.65484,0.375596 -1.8157,1.20691 -2.57969,1.847363 -1.38906,1.16446 -1.38906,1.16446 -1.38906,-1.009642 z"
       style="fill:#000000;stroke-width:0.26458335" />
  </g>
</svg>
