<?xml version="1.0" encoding="UTF-8" standalone="no"?>
<svg
   xmlns:dc="http://purl.org/dc/elements/1.1/"
   xmlns:cc="http://creativecommons.org/ns#"
   xmlns:rdf="http://www.w3.org/1999/02/22-rdf-syntax-ns#"
   xmlns:svg="http://www.w3.org/2000/svg"
   xmlns="http://www.w3.org/2000/svg"
   id="svg10"
   version="1.2"
   viewBox="0 0 1312.8914 457.5993"
   height="457.5993"
   width="1312.8914">
  <metadata
     id="metadata16">
    <rdf:RDF>
      <cc:Work
         rdf:about="">
        <dc:format>image/svg+xml</dc:format>
        <dc:type
           rdf:resource="http://purl.org/dc/dcmitype/StillImage" />
        <dc:title>Yolande</dc:title>
      </cc:Work>
    </rdf:RDF>
  </metadata>
  <defs
     id="defs14" />
  <title
     id="title2">Yolande</title>
  <g
     transform="matrix(2.2212456,0,0,2.2212456,-752.90731,-3295.9504)"
     id="g8">
    <path
       style="fill:#000000"
       id="path6"
       d="m 374.46,1689.02 v 0 c 1.032,-0.06 2.106,0.14 3.095,-0.16 0.98,-0.29 1.853,-0.92 2.635,-1.58 1.479,-1.24 3.116,-2.44 4.103,-4.1 1.504,-2.54 2.316,-5.44 3.22,-8.25 1.333,-4.13 2.8,-8.27 3.481,-12.56 1.777,-11.2 2.877,-22.51 3.874,-33.81 0.065,-0.73 -0.777,-1.36 -0.706,-2.1 0.26,-2.69 1.378,-5.24 1.676,-7.92 0.047,-0.42 -0.717,-0.66 -0.678,-1.08 0.314,-3.33 1.269,-6.58 1.711,-9.9 0.206,-1.55 -0.831,-3.54 0.231,-4.69 3.035,-3.3 7.468,-4.95 11.088,-7.59 1.396,-1.01 2.77,-2.09 3.943,-3.35 0.8,-0.87 1.048,-2.17 1.915,-2.97 0.964,-0.89 2.347,-1.18 3.419,-1.93 0.6,-0.42 1.108,-0.98 1.555,-1.56 0.902,-1.17 1.061,-4.1 2.476,-3.68 2.003,0.61 1.966,3.71 3.214,5.39 0.871,1.18 1.933,2.22 3.098,3.1 1.554,1.18 3.241,2.2 4.999,3.04 2.135,1.03 4.341,1.95 6.632,2.55 1.007,0.26 2.099,0.19 3.12,0 2.054,-0.39 4.123,-0.87 6.027,-1.74 2.434,-1.1 4.806,-2.42 6.883,-4.11 1.113,-0.9 1.493,-2.48 2.505,-3.49 0.962,-0.97 2.616,-1.21 3.334,-2.37 2.592,-4.19 3.722,-9.18 6.38,-13.32 0.669,-1.05 2.741,-2.86 3.283,-1.75 2.208,4.54 1.459,10.05 3.08,14.83 0.705,2.07 1.985,4.12 3.777,5.38 2.214,1.56 4.966,2.53 7.67,2.67 2.794,0.14 5.498,-1.08 8.184,-1.86 1.591,-0.47 2.989,-2.23 4.607,-1.87 1.164,0.25 1.299,2.06 1.537,3.23 0.081,0.39 -0.667,0.6 -0.671,1 -0.007,0.71 0.632,1.32 0.642,2.03 0.006,0.39 -0.577,0.61 -0.597,1 -0.016,0.31 0.73,0.57 0.506,0.78 -1.767,1.71 -4.016,2.85 -5.898,4.43 -1.299,1.1 -2.254,2.58 -3.626,3.58 -2.319,1.68 -5.081,2.7 -7.374,4.42 -1.733,1.3 -2.978,3.16 -4.62,4.57 -0.797,0.69 -1.854,1.02 -2.662,1.7 -1.204,1 -2.132,2.31 -3.338,3.3 -0.713,0.6 -1.69,0.82 -2.38,1.43 -2.397,2.15 -4.739,4.38 -6.833,6.82 -1.951,2.27 -3.674,4.74 -5.264,7.28 -2.363,3.78 -4.761,7.57 -6.575,11.64 -0.422,0.94 -0.198,2.09 0,3.1 0.133,0.69 0.742,1.2 0.965,1.85 0.691,2.04 0.985,4.2 1.768,6.2 0.76,1.95 1.754,3.8 2.841,5.58 0.655,1.08 1.414,2.12 2.362,2.95 1.765,1.55 3.584,3.13 5.709,4.12 2.729,1.28 5.727,1.91 8.656,2.62 0.687,0.17 1.427,0.13 2.123,0 2.265,-0.43 4.529,-0.92 6.711,-1.66 1.393,-0.47 2.693,-1.2 3.952,-1.96 0.428,-0.26 0.747,-0.67 1.06,-1.06 1.044,-1.3 2.172,-2.56 3.003,-4.01 3.19,-5.55 6.42,-11.11 9.036,-16.95 2.311,-5.17 4.266,-10.52 5.706,-15.99 1.086,-4.13 1.499,-8.42 1.837,-12.68 0.057,-0.72 -0.66,-1.34 -0.666,-2.06 -0.003,-0.39 0.525,-0.6 0.642,-0.97 0.106,-0.34 0.091,-0.72 0,-1.06 -0.185,-0.68 -0.804,-1.26 -0.812,-1.97 -0.008,-0.71 0.728,-1.29 0.768,-2 0.022,-0.39 -0.609,-0.61 -0.598,-1 0.01,-0.39 0.553,-0.6 0.651,-0.97 0.171,-0.66 0.24,-1.36 0.132,-2.03 -0.115,-0.7 -0.739,-1.28 -0.783,-2 -0.024,-0.39 0.608,-0.61 0.598,-1 -0.015,-0.59 -0.999,-1.15 -0.665,-1.63 1.188,-1.71 3.041,-2.86 4.676,-4.16 0.726,-0.57 1.701,-0.8 2.38,-1.43 4.165,-3.86 6.771,-10.03 12.1,-11.99 2.252,-0.83 2.245,4.27 3.687,6.18 1.086,1.44 2.399,2.73 3.839,3.82 1.41,1.06 2.913,2.16 4.63,2.57 1.98,0.48 4.128,0.48 6.108,0 1.717,-0.41 3.257,-1.46 4.63,-2.57 2.237,-1.81 4.357,-3.82 6.104,-6.11 1.463,-1.91 2.029,-4.4 3.424,-6.36 1.045,-1.48 2.334,-2.82 3.821,-3.85 1.715,-1.18 3.854,-1.61 5.645,-2.68 4.772,-2.84 9.497,-5.77 14.012,-9.01 2.544,-1.82 5.004,-3.81 7.117,-6.11 1.808,-1.98 3.192,-4.31 4.549,-6.61 0.184,-0.32 0.16,-0.77 -0.015,-1.09 -0.3,-0.54 -0.745,-1.07 -1.315,-1.32 -0.618,-0.27 -1.363,-0.29 -2.02,-0.14 -1.634,0.39 -3.248,0.95 -4.731,1.74 -1.096,0.58 -2.028,1.45 -2.909,2.32 -1.657,1.65 -2.841,3.78 -4.682,5.22 -1.899,1.48 -4.302,2.18 -6.37,3.42 -2.146,1.29 -4.077,2.92 -6.259,4.15 -0.315,0.17 -0.906,0.28 -1.081,-0.03 -0.222,-0.4 0.378,-0.88 0.325,-1.33 -0.045,-0.39 -0.607,-0.61 -0.598,-1 0.008,-0.39 0.523,-0.6 0.641,-0.97 0.112,-0.35 0.109,-0.74 0.022,-1.09 -0.496,-2.03 -0.953,-4.09 -1.758,-6.02 -0.793,-1.9 -1.848,-3.69 -3.005,-5.39 -0.828,-1.22 -1.723,-2.46 -2.917,-3.32 -2.036,-1.47 -4.367,-2.48 -6.63,-3.57 -0.321,-0.16 -0.704,-0.13 -1.06,-0.13 -1.685,0 -3.394,-0.16 -5.056,0.12 -2.06,0.35 -4.097,0.94 -6.016,1.76 -1.655,0.72 -3.183,1.73 -4.612,2.82 -1.163,0.9 -2.176,1.99 -3.108,3.12 -0.415,0.5 -0.676,1.13 -0.892,1.75 -0.682,1.95 -1.372,3.9 -1.795,5.93 -0.138,0.66 -0.039,1.36 0.132,2.02 0.099,0.37 0.65,0.58 0.652,0.97 0.002,0.39 -0.525,0.6 -0.642,0.97 -0.106,0.34 -0.115,0.72 0,1.06 0.129,0.37 0.641,0.56 0.695,0.94 0.209,1.51 0.763,3.22 0.07,4.58 -0.591,1.15 -2.34,1.15 -3.389,1.92 -0.545,0.4 -1.144,0.88 -1.332,1.53 -0.109,0.37 0.527,0.62 0.597,1 0.036,0.19 -0.17,0.37 -0.322,0.5 -1.509,1.28 -3.243,2.29 -4.64,3.69 -0.694,0.69 -0.893,1.77 -1.551,2.5 -0.686,0.76 -1.696,1.16 -2.419,1.88 -0.663,0.67 -1.013,1.61 -1.701,2.24 -2.116,1.95 -4.185,4.04 -6.67,5.49 -0.4,0.23 -0.463,-0.84 -0.479,-1.3 -0.101,-3.01 -0.236,-6.04 0.132,-9.03 0.071,-0.57 0.854,-0.79 1.14,-1.29 1.117,-1.94 2.238,-3.89 3.048,-5.98 1.096,-2.83 2.342,-5.69 2.65,-8.71 0.544,-5.32 0.539,-10.74 -0.12,-16.05 -0.254,-2.04 -1.585,-3.81 -2.573,-5.62 -0.25,-0.45 -0.676,-0.81 -1.103,-1.1 -0.848,-0.6 -1.655,-1.55 -2.69,-1.56 -1.025,0 -2.109,0.67 -2.666,1.53 -1.962,3.03 -3.402,6.4 -4.656,9.78 -0.139,0.38 0.541,0.62 0.664,1 0.112,0.34 0.153,0.75 0.014,1.08 -0.431,1.04 -1.401,1.83 -1.679,2.92 -0.1,0.39 0.57,0.61 0.675,1 0.178,0.66 0.225,1.36 0.146,2.03 -0.162,1.37 -0.963,2.68 -0.864,4.06 0.193,2.7 1.705,5.23 1.722,7.94 0.013,1.99 -0.698,4 -1.635,5.76 -0.671,1.26 -1.883,2.18 -3.037,3.03 -1.426,1.04 -3.035,1.82 -4.63,2.57 -0.321,0.15 -0.704,0.13 -1.06,0.13 -2.007,-0.01 -4.095,0.43 -6.02,-0.14 -1.049,-0.31 -1.932,-1.3 -2.316,-2.32 -0.248,-0.66 0.573,-1.31 0.694,-2 0.119,-0.69 0.169,-1.41 0.015,-2.09 -0.459,-2.02 -1.838,-3.87 -1.838,-5.94 -10e-4,-2.72 1.529,-5.24 1.836,-7.94 0.083,-0.73 -0.857,-1.38 -0.694,-2.09 0.834,-3.68 2.174,-7.23 3.601,-10.72 0.482,-1.18 1.503,-2.07 2.09,-3.2 0.164,-0.31 0.124,-0.7 0.124,-1.06 -0.003,-1 0.287,-2.1 -0.135,-3.02 -0.458,-0.99 -1.319,-1.89 -2.325,-2.32 -0.942,-0.41 -2.093,-0.3 -3.08,-0.01 -1.026,0.29 -2.199,0.74 -2.728,1.67 -2.615,4.57 -4.172,9.68 -6.471,14.42 -0.517,1.06 -1.226,2.03 -1.962,2.96 -0.457,0.58 -1.22,2.16 -1.594,1.52 -1.713,-2.9 -1.664,-6.58 -3.173,-9.59 -1.036,-2.07 -2.497,-4.03 -4.346,-5.42 -1.528,-1.15 -3.555,-1.43 -5.404,-1.91 -2.72,-0.71 -5.459,-1.67 -8.269,-1.65 -3.22,0.03 -6.379,0.97 -9.495,1.78 -1.467,0.39 -2.921,0.95 -4.183,1.79 -1.189,0.79 -2.406,1.74 -3.036,3.02 -1.021,2.08 -0.802,4.62 -1.751,6.73 -0.45,1.01 -1.628,1.49 -2.319,2.35 -0.758,0.94 -1.433,1.95 -2.007,3.01 -1.572,2.91 -2.673,6.08 -4.42,8.89 -0.165,0.26 -0.463,-0.46 -0.763,-0.55 -0.336,-0.1 -0.749,-0.18 -1.052,0 -0.681,0.39 -1.337,0.93 -1.723,1.61 -1.71,3.05 -2.499,6.6 -4.5,9.45 -1.909,2.73 -4.586,4.84 -7.06,7.06 -0.781,0.71 -1.838,1.04 -2.662,1.7 -1.083,0.85 -1.765,2.27 -3.033,2.82 -0.425,0.18 -0.428,-0.84 -0.478,-1.3 -0.074,-0.69 -0.032,-1.39 0.116,-2.06 1.762,-8.02 3.159,-16.14 5.607,-23.97 3.903,-12.49 9.573,-24.39 13.414,-36.89 2.205,-7.18 3.398,-14.64 4.683,-22.04 0.069,-0.4 -0.552,-0.63 -0.68,-1.01 -0.114,-0.35 -0.114,-0.74 -0.017,-1.09 1.466,-5.33 3.529,-10.5 4.693,-15.9 0.133,-0.62 -0.467,-1.22 -0.907,-1.67 -0.68,-0.71 -1.439,-1.44 -2.372,-1.73 -0.98,-0.31 -2.193,-0.51 -3.08,0.01 -1.537,0.89 -2.541,2.5 -3.64,3.9 -1.235,1.57 -2.342,3.25 -3.34,4.99 -1.058,1.83 -2.018,3.74 -2.812,5.7 -1.09,2.71 -2.225,5.43 -2.83,8.28 -1.574,7.41 -2.726,14.92 -3.69,22.44 -0.054,0.42 0.728,0.66 0.676,1.08 -0.577,4.71 -1.531,9.37 -2.526,14.01 -0.838,3.91 -1.745,7.82 -2.968,11.62 -0.46,1.43 -1.243,2.75 -2.058,4.02 -1.584,2.45 -3.131,4.98 -5.122,7.12 -2.403,2.59 -5.225,4.76 -7.974,6.97 -0.797,0.65 -1.674,1.23 -2.636,1.58 -0.644,0.24 -1.368,0.14 -2.054,0.14 -1.352,0 -2.783,0.32 -4.054,-0.14 -1.443,-0.52 -2.798,-1.47 -3.738,-2.68 -1.034,-1.34 -1.428,-3.07 -1.961,-4.67 -0.651,-1.95 -1.383,-3.92 -1.582,-5.97 -0.071,-0.73 0.798,-1.31 0.804,-2.04 0.006,-0.71 -0.728,-1.29 -0.768,-2 -0.022,-0.39 0.609,-0.61 0.598,-1 -0.01,-0.39 -0.6,-0.59 -0.652,-0.97 -0.178,-1.36 -0.202,-2.74 -0.017,-4.09 1.02,-7.43 2.06,-14.86 3.627,-22.19 1.123,-5.26 3.069,-10.3 4.429,-15.5 1.678,-6.42 2.849,-12.96 4.683,-19.33 0.401,-1.4 1.595,-2.47 1.993,-3.87 0.282,-0.98 0.166,-2.06 -0.011,-3.07 -0.058,-0.33 -0.385,-0.57 -0.661,-0.76 -0.853,-0.59 -1.654,-1.56 -2.69,-1.56 -1.036,0 -1.946,0.83 -2.69,1.56 -0.907,0.87 -1.739,1.92 -2.141,3.12 -2.176,6.48 -3.352,13.27 -5.538,19.75 -1.207,3.57 -2.862,7 -4.615,10.34 -2.201,4.2 -4.663,8.27 -7.229,12.25 -4.209,6.55 -9.094,12.65 -13.088,19.32 -0.234,0.4 0.908,0.52 1.328,0.34 0.74,-0.31 1.267,-1.01 1.758,-1.65 1.58,-2.05 2.83,-4.34 4.43,-6.38 2.072,-2.64 4.498,-4.98 6.57,-7.62 1.6,-2.04 2.883,-4.3 4.433,-6.38 0.199,-0.27 0.471,-0.51 0.789,-0.61 0.137,-0.04 0.309,0.13 0.33,0.28 0.106,0.68 0.127,1.39 0.033,2.08 -1.14,8.33 -3.307,16.55 -3.73,24.94 -0.216,4.29 0.899,8.55 1.83,12.74 0.612,2.75 1.39,5.53 2.779,7.98 0.936,1.65 2.514,2.88 4.026,4.03 1.425,1.08 2.964,2.16 4.698,2.6 1.946,0.5 4.022,0.3 6.024,0.13 0.714,-0.05 1.287,-0.74 2.003,-0.78 0.4,-0.02 0.649,0.75 1.028,0.62 1.675,-0.56 3.222,-1.5 4.656,-2.53 2.576,-1.86 4.615,-4.43 7.321,-6.09 0.395,-0.24 0.448,0.84 0.479,1.3 0.091,1.35 0.182,2.74 -0.118,4.06 -0.316,1.38 -1.406,2.52 -1.695,3.91 -0.086,0.41 0.744,0.65 0.658,1.06 -0.289,1.39 -1.415,2.52 -1.695,3.91 -0.374,1.86 0.534,3.96 -0.236,5.69 -0.652,1.47 -2.306,2.28 -3.674,3.12 -1.686,1.03 -3.706,1.44 -5.402,2.46 -1.659,0.99 -2.964,2.5 -4.597,3.54 -1.146,0.73 -2.529,1.02 -3.692,1.72 -0.538,0.33 -0.824,0.97 -1.349,1.32 -2.395,1.57 -5.164,2.6 -7.374,4.43 -3.563,2.94 -6.475,6.6 -9.825,9.78 -0.979,0.93 -2.195,1.59 -3.149,2.55 -0.716,0.71 -1.117,1.7 -1.826,2.43 -0.301,0.3 -0.889,0.25 -1.144,0.59 -2.553,3.48 -5.17,6.95 -7.193,10.76 -1.041,1.96 -1.428,4.21 -1.905,6.38 -0.749,3.4 -1.309,6.84 -1.766,10.29 -0.091,0.68 -0.041,1.39 0.13,2.06 0.43,1.67 1.008,3.29 1.66,4.89 1.208,2.95 2.392,5.92 3.915,8.73 0.798,1.47 1.876,2.78 3.008,4.01 2.816,3.06 5.655,6.12 8.812,8.83 1.553,1.33 3.384,2.33 5.23,3.21 1.157,0.55 2.454,0.75 3.7,1.05 2.323,0.57 4.62,1.36 7.003,1.56 m 0.084,-7.84 v 0 c -1.701,-0.05 -3.434,0.2 -5.103,-0.13 -1.311,-0.27 -2.511,-0.96 -3.669,-1.62 -1.711,-0.99 -3.455,-1.98 -4.906,-3.32 -2.907,-2.69 -6.047,-5.3 -8.097,-8.68 -1.949,-3.22 -3.318,-6.94 -3.632,-10.69 -0.328,-3.93 1.026,-7.82 1.76,-11.69 0.219,-1.16 0.586,-2.3 1.094,-3.36 1.103,-2.3 2.268,-4.6 3.721,-6.69 1.556,-2.25 3.404,-4.29 5.265,-6.29 2.578,-2.78 5.278,-5.44 8.038,-8.03 0.306,-0.29 0.823,-0.28 1.119,-0.57 0.894,-0.9 1.468,-2.09 2.395,-2.95 1.315,-1.23 2.777,-2.3 4.287,-3.27 2.259,-1.45 4.649,-2.69 6.998,-4 2.195,-1.22 4.35,-2.52 6.631,-3.57 0.329,-0.15 0.814,-0.21 1.085,0.03 0.353,0.31 0.405,0.87 0.454,1.33 0.105,0.99 0.181,2.01 0.002,2.99 -0.431,2.36 -1.482,4.59 -1.821,6.97 -0.06,0.42 0.713,0.66 0.671,1.08 -0.667,6.72 -1.746,13.39 -2.77,20.06 -0.2,1.31 -0.84,2.54 -0.901,3.86 -0.018,0.41 0.549,0.63 0.677,1.01 0.116,0.35 0.068,0.73 0.025,1.09 -0.548,4.65 -0.898,9.33 -1.798,13.92 -0.989,5.05 -2.376,10.02 -3.859,14.94 -0.378,1.26 -1.104,2.38 -1.707,3.55 -0.413,0.8 -0.698,1.71 -1.337,2.34 -0.722,0.71 -1.66,1.2 -2.611,1.55 M 644.457,1672 v 0 c 0.688,-0.05 1.441,0.15 2.064,-0.15 0.734,-0.34 1.359,-0.97 1.772,-1.67 1.046,-1.78 2.081,-3.63 2.536,-5.65 0.161,-0.71 -0.832,-1.3 -0.799,-2.03 0.338,-7.62 1.036,-15.23 1.903,-22.81 0.709,-6.19 1.656,-12.36 2.822,-18.49 1.767,-9.27 3.75,-18.5 5.973,-27.68 1.449,-5.98 3.015,-11.95 5.039,-17.76 0.257,-0.74 0.966,-1.36 1.707,-1.61 0.963,-0.33 2.048,-0.17 3.052,0 0.706,0.11 1.265,0.76 1.977,0.83 1.676,0.17 3.457,0.43 5.051,-0.12 4.069,-1.39 7.901,-3.44 11.631,-5.57 1.86,-1.07 3.048,-4.76 5.049,-3.99 2.265,0.88 1.445,4.65 2.436,6.87 0.631,1.41 1.41,2.78 2.404,3.96 0.734,0.88 1.712,1.54 2.698,2.12 1.153,0.67 2.347,1.42 3.669,1.62 2.345,0.35 4.836,0.65 7.113,-0.01 3.126,-0.91 5.985,-2.67 8.63,-4.57 2.003,-1.44 2.861,-6.25 5.144,-5.32 3.139,1.28 2.492,6.36 4.362,9.19 0.687,1.04 1.998,1.51 3.096,2.1 0.786,0.42 1.653,0.67 2.513,0.9 2.381,0.64 4.736,1.81 7.199,1.7 2.585,-0.12 5.032,-1.31 7.401,-2.35 1.904,-0.84 3.655,-2.02 5.324,-3.26 0.824,-0.61 1.134,-2.63 2.092,-2.26 1.547,0.6 1.575,2.98 2.759,4.14 1.35,1.33 3.053,2.25 4.7,3.18 1.155,0.66 2.353,1.37 3.667,1.56 2.347,0.33 4.819,0.59 7.113,-0.01 2.43,-0.63 4.678,-1.99 6.63,-3.57 1.7,-1.38 3.147,-3.15 4.109,-5.11 1.967,-4.02 3.378,-8.31 4.574,-12.62 0.407,-1.47 -1.012,-3.63 0.194,-4.56 3.862,-2.96 8.791,-4.23 13.38,-5.87 0.969,-0.34 2.138,-0.38 3.085,0.02 1.329,0.56 2.498,1.57 3.37,2.72 0.335,0.44 0.222,1.17 -0.047,1.66 -0.504,0.91 -1.513,1.44 -2.134,2.28 -0.611,0.82 -1.291,1.67 -1.538,2.66 -0.097,0.39 0.677,0.63 0.621,1.03 -0.046,0.33 -0.668,0.26 -0.842,0.54 -1.527,2.51 -2.97,5.07 -4.203,7.73 -2.086,4.5 -4.165,9.03 -5.739,13.74 -0.319,0.95 -0.01,2.02 0.135,3.01 0.029,0.21 0.202,0.38 0.374,0.49 1.517,0.96 3.247,1.59 4.66,2.7 1.374,1.08 2.893,2.2 3.616,3.79 0.254,0.56 -0.713,1.12 -1.299,1.3 -0.372,0.11 -0.625,-0.51 -1.004,-0.6 -0.135,-0.03 -0.326,0.16 -0.295,0.3 0.089,0.38 0.521,0.62 0.598,1 0.037,0.18 -0.168,0.34 -0.299,0.47 -3.901,3.98 -8.291,7.5 -11.785,11.84 -3.546,4.4 -6.336,9.37 -9.221,14.22 -1.469,2.48 -2.709,5.09 -3.82,7.74 -1.053,2.52 -2.254,5.04 -2.66,7.74 -0.448,2.97 -0.492,6.08 0.134,9.02 0.311,1.45 1.596,2.53 2.567,3.66 1.257,1.46 2.643,2.82 4.095,4.09 1.255,1.1 2.604,2.1 4.006,3.01 1.483,0.96 2.898,2.23 4.63,2.57 2.959,0.59 6.077,0.65 9.048,0.13 2.701,-0.48 5.438,-1.43 7.638,-3.07 1.879,-1.4 3.026,-3.62 4.116,-5.7 1.293,-2.45 2.093,-5.15 2.974,-7.78 1.314,-3.93 2.676,-7.87 3.607,-11.91 0.09,-0.39 -0.649,-0.63 -0.629,-1.03 0.037,-0.72 0.76,-1.29 0.785,-2 0.239,-7 0.61,-14.02 10e-4,-20.99 -0.347,-3.98 -3.62,-7.72 -2.851,-11.64 0.486,-2.47 4.187,-2.84 6.03,-4.56 0.758,-0.71 0.939,-1.89 1.671,-2.62 1.668,-1.67 4.048,-2.62 5.457,-4.51 1.551,-2.09 1.95,-4.83 3.191,-7.11 0.759,-1.4 1.964,-2.51 2.782,-3.87 0.353,-0.59 0.586,-1.26 0.703,-1.94 0.716,-4.15 -0.556,-9 1.789,-12.5 1.991,-2.97 6.346,-3.34 9.687,-4.62 0.447,-0.17 1.485,-0.08 1.383,0.39 -1.102,5.09 -3.578,9.82 -4.694,14.91 -0.503,2.3 -0.346,4.72 -0.119,7.06 0.091,0.94 0.468,1.89 1.059,2.63 0.61,0.77 1.462,1.41 2.398,1.69 0.383,0.12 0.619,-0.54 1,-0.66 0.335,-0.11 0.748,-0.17 1.055,0 0.545,0.3 0.998,0.78 1.324,1.31 0.18,0.3 0.168,0.69 0.118,1.03 -0.077,0.52 -0.12,1.13 -0.492,1.51 -1.831,1.84 -4.265,3.06 -5.977,5.01 -0.33,0.38 0.524,1.03 0.299,1.48 -0.353,0.71 -1.357,0.88 -1.804,1.53 -0.768,1.12 -1.002,2.54 -1.766,3.66 -0.115,0.17 -0.354,-0.55 -0.475,-0.38 -1.511,2.04 -2.821,4.24 -4.03,6.47 -0.988,1.83 -1.985,3.69 -2.546,5.69 -0.113,0.4 0.733,0.66 0.651,1.06 -0.281,1.4 -1.377,2.54 -1.658,3.94 -0.082,0.4 0.785,0.66 0.652,1.06 -0.602,1.77 -2.093,3.14 -2.685,4.92 -0.326,0.97 -0.16,2.06 0.009,3.08 0.067,0.39 0.776,0.61 0.676,1 -0.281,1.09 -1.423,1.82 -1.686,2.92 -0.32,1.33 -0.284,2.77 -0.004,4.11 0.323,1.56 1.031,3.02 1.781,4.42 0.817,1.53 1.72,3.04 2.896,4.3 0.714,0.78 1.864,1.01 2.662,1.7 1.547,1.32 2.774,3 4.338,4.3 0.786,0.66 1.664,1.31 2.661,1.54 0.405,0.1 0.656,-0.73 1.063,-0.65 1.406,0.29 2.541,1.84 3.966,1.68 2.403,-0.29 4.652,-1.55 6.645,-2.93 1.419,-0.97 2.342,-2.54 3.331,-3.95 1.048,-1.49 2.162,-3 2.756,-4.73 1.539,-4.46 2.664,-9.08 3.596,-13.71 0.08,-0.39 -0.632,-0.63 -0.627,-1.03 0.004,-0.39 0.575,-0.59 0.652,-0.97 0.197,-0.99 0.146,-2.02 0.146,-3.03 0,-0.68 0.028,-1.37 -0.147,-2.03 -0.1,-0.37 -0.641,-0.58 -0.651,-0.97 -0.011,-0.39 0.598,-0.61 0.598,-1 0,-0.39 -0.606,-0.61 -0.599,-1 0.008,-0.41 0.686,-0.64 0.639,-1.04 -0.592,-5.02 -1.449,-10.01 -2.524,-14.95 -0.797,-3.67 -3.462,-7.09 -3.085,-10.82 0.203,-2.01 2.982,-2.74 4.58,-3.97 2.255,-1.75 4.474,-3.58 6.966,-4.97 2.013,-1.12 4.448,-1.35 6.445,-2.5 1.094,-0.63 2.174,-1.55 2.63,-2.72 0.489,-1.26 0.619,-2.85 0,-4.05 -0.618,-1.2 -2.106,-1.71 -3.295,-2.34 -0.328,-0.17 -0.77,-0.14 -1.112,0 -0.934,0.39 -1.845,0.89 -2.61,1.55 -0.697,0.6 -0.861,1.8 -1.703,2.18 -0.547,0.24 -1.084,-0.86 -1.659,-0.69 -1.688,0.49 -3.217,1.47 -4.635,2.51 -0.685,0.5 -0.84,1.56 -1.553,2.02 -0.262,0.17 -0.479,-0.46 -0.787,-0.51 -0.183,-0.03 -0.355,0.15 -0.472,0.3 -0.961,1.19 -1.745,2.52 -2.74,3.69 -0.52,0.61 -1.063,1.96 -1.785,1.61 -2.504,-1.2 -5.819,-2.74 -6.276,-5.48 -0.658,-3.94 1.947,-7.78 3.446,-11.48 1.013,-2.51 2.548,-4.77 4.041,-7.02 0.578,-0.87 1.806,-1.3 2.14,-2.29 0.432,-1.28 0.463,-2.79 0,-4.06 -0.375,-1.03 -1.248,-2.12 -2.325,-2.32 -3.303,-0.62 -6.81,-0.78 -10.085,-0.02 -5.208,1.22 -9.857,4.19 -14.943,5.84 -0.503,0.16 -1.15,-0.1 -1.506,-0.49 -1.557,-1.71 -2.543,-3.88 -4.066,-5.61 -0.645,-0.74 -1.439,-1.44 -2.373,-1.73 -0.987,-0.31 -2.11,-0.28 -3.107,0 -1.014,0.28 -2.188,0.72 -2.703,1.64 -0.994,1.77 0.427,5.34 -1.527,5.91 -2.058,0.6 -3.147,-2.99 -5.046,-3.99 -2.401,-1.26 -5.04,-2.05 -7.676,-2.69 -0.991,-0.23 -2.057,-0.08 -3.056,0.12 -1.939,0.39 -3.876,0.89 -5.701,1.65 -1.168,0.49 -2.041,1.53 -3.182,2.08 -0.325,0.15 -1.024,0.33 -1.081,-0.03 -0.231,-1.44 0.667,-2.93 0.377,-4.36 -0.155,-0.76 -0.916,-1.34 -1.605,-1.7 -1.461,-0.78 -3.072,-1.27 -4.686,-1.64 -0.994,-0.22 -2.04,-0.2 -3.056,-0.12 -0.519,0.05 -1.046,0.21 -1.486,0.49 -0.494,0.31 -1.015,0.7 -1.239,1.24 -0.759,1.83 -1.286,3.75 -1.648,5.7 -0.19,1.02 -0.368,2.15 0.007,3.11 0.573,1.49 2.252,2.4 2.713,3.92 0.493,1.63 0.333,3.42 0.018,5.09 -0.56,2.96 -1.584,5.83 -2.616,8.66 -0.512,1.4 -1.231,2.73 -2.004,4 -0.258,0.43 -0.653,0.77 -1.059,1.06 -0.834,0.6 -1.644,1.33 -2.636,1.58 -1.31,0.34 -2.702,0.14 -4.054,0.14 -0.677,0 -1.416,0.14 -2.026,-0.15 -0.732,-0.35 -1.352,-0.98 -1.767,-1.67 -1.054,-1.77 -1.96,-3.66 -2.573,-5.62 -0.304,-0.98 -0.133,-2.04 -0.133,-3.06 0,-0.69 -0.016,-1.39 0.131,-2.06 0.807,-3.69 2.406,-7.23 2.724,-11 0.086,-1.02 -0.937,-1.83 -1.571,-2.63 -0.497,-0.63 -1.032,-1.34 -1.785,-1.61 -0.365,-0.13 -0.611,0.6 -1,0.6 -0.389,0 -0.614,-0.64 -1,-0.6 -0.623,0.07 -1.2,0.46 -1.657,0.89 -0.498,0.46 -0.897,1.07 -1.12,1.71 -1.647,4.75 -2.55,9.76 -4.467,14.41 -0.68,1.65 -1.966,3.01 -3.233,4.26 -1.665,1.65 -3.285,3.61 -5.497,4.38 -2.219,0.78 -4.715,0.25 -7.052,0 -0.615,-0.06 -1.168,-0.49 -1.607,-0.92 -0.696,-0.69 -1.619,-1.4 -1.729,-2.38 -0.525,-4.65 -0.931,-9.43 -0.124,-14.04 0.794,-4.54 3.346,-8.59 4.846,-12.95 0.121,-0.35 0.144,-0.78 -0.004,-1.12 -0.424,-0.97 -0.835,-2.06 -1.666,-2.72 -1.04,-0.84 -2.35,-1.59 -3.683,-1.56 -1.093,0.02 -2.104,0.85 -2.817,1.68 -0.961,1.11 -1.445,2.57 -2.014,3.93 -1.581,3.78 -2.732,7.73 -4.429,11.46 -1.106,2.42 -2.369,4.81 -3.959,6.95 -1.351,1.82 -3.271,3.15 -4.789,4.84 -0.28,0.31 -0.248,0.85 -0.573,1.11 -1.689,1.38 -3.358,2.89 -5.371,3.73 -0.665,0.27 -1.336,-0.68 -2.055,-0.66 -0.714,0.02 -1.289,0.71 -2,0.77 -0.516,0.04 -1.064,-0.16 -1.482,-0.47 -0.858,-0.62 -1.731,-1.33 -2.25,-2.25 -0.808,-1.45 -1.455,-3.05 -1.636,-4.69 -0.366,-3.34 -0.561,-6.77 0.016,-10.09 0.18,-1.03 1.552,-1.42 2.141,-2.29 0.994,-1.46 1.817,-3.03 2.573,-4.63 0.152,-0.32 0.124,-0.7 0.124,-1.06 -0.003,-1 0.287,-2.1 -0.135,-3.02 -0.458,-0.99 -1.439,-1.68 -2.325,-2.32 -0.278,-0.2 -0.692,-0.2 -1.026,-0.12 -0.915,0.23 -1.966,0.38 -2.634,1.04 -1.67,1.67 -2.87,3.76 -4.152,5.74 -0.693,1.08 -1.381,2.19 -1.759,3.41 -0.868,2.8 -0.889,5.84 -1.953,8.58 -0.643,1.65 -1.802,3.1 -3.076,4.33 -2.02,1.96 -4.258,3.73 -6.702,5.12 -2.721,1.55 -5.652,2.77 -8.665,3.62 -1.31,0.36 -2.737,0.18 -4.081,-0.03 -0.214,-0.04 -0.235,-0.43 -0.153,-0.63 0.349,-0.86 0.818,-1.68 1.39,-2.4 0.758,-0.96 1.836,-1.64 2.57,-2.62 1.276,-1.7 2.194,-3.65 3.43,-5.38 0.438,-0.61 1.178,-0.98 1.573,-1.63 1.783,-2.89 3.851,-5.7 4.93,-8.92 1.81,-5.4 2.711,-11.08 3.651,-16.7 0.282,-1.68 0.236,-3.43 10e-4,-5.12 -0.387,-2.79 -1.121,-5.51 -1.858,-8.23 -0.164,-0.6 -0.791,-1.06 -0.833,-1.68 -0.028,-0.42 0.735,-0.66 0.65,-1.06 -0.292,-1.39 -1.413,-2.52 -1.695,-3.91 -0.334,-1.65 -0.29,-3.38 -0.119,-5.06 0.073,-0.71 0.74,-1.27 0.837,-1.97 0.184,-1.34 0.635,-2.87 -0.009,-4.06 -0.38,-0.7 -1.691,-0.74 -2.367,-0.32 -1.173,0.73 -1.453,2.39 -2.469,3.33 -0.386,0.35 -1.056,0.58 -1.535,0.36 -0.931,-0.42 -1.341,-1.62 -2.248,-2.09 -2.773,-1.45 -5.645,-2.79 -8.666,-3.62 -1.625,-0.44 -3.397,-0.43 -5.052,-0.12 -4.735,0.91 -9.417,2.17 -13.965,3.77 -3.71,1.31 -7.362,2.89 -10.725,4.93 -1.63,0.99 -3.096,2.39 -4.047,4.04 -1.367,2.38 -2.209,5.06 -2.739,7.75 -0.138,0.7 0.661,1.28 0.822,1.97 0.201,0.87 -0.203,1.9 0.25,2.66 0.494,0.84 1.476,1.29 2.343,1.73 0.324,0.16 0.743,0.1 1.084,-0.02 0.553,-0.19 1.198,-0.39 1.515,-0.89 1.502,-2.33 2.686,-4.86 3.818,-7.39 0.231,-0.52 -0.121,-1.25 0.238,-1.69 1.026,-1.26 2.403,-2.19 3.71,-3.16 0.825,-0.6 1.667,-1.29 2.661,-1.53 0.389,-0.1 0.669,0.8 1.029,0.62 1.188,-0.58 1.778,-2.09 3,-2.6 0.549,-0.23 1.075,0.78 1.658,0.66 0.745,-0.15 1.092,-1.14 1.814,-1.38 0.391,-0.13 0.801,0.56 1.174,0.39 0.735,-0.35 0.933,-1.5 1.708,-1.74 0.576,-0.18 1.084,0.82 1.675,0.69 1.115,-0.23 1.846,-1.74 2.984,-1.67 2.571,0.16 4.97,1.39 7.375,2.32 0.932,0.35 1.779,0.92 2.584,1.51 1.205,0.88 2.741,1.56 3.426,2.89 0.563,1.09 0.297,2.5 -0.036,3.68 -0.426,1.52 -1.547,2.75 -2.18,4.2 -1.492,3.4 -3.012,6.8 -4.19,10.32 -2.176,6.5 -4.036,13.12 -5.861,19.73 -1.596,5.78 -1.873,12 -4.399,17.44 -1.104,2.38 -3.891,3.54 -6.042,5.04 -2.2,1.54 -4.546,2.88 -6.963,4.04 -2.142,1.04 -4.316,2.19 -6.668,2.55 -3.335,0.5 -6.767,0.37 -10.12,0 -1.644,-0.18 -3.27,-0.78 -4.685,-1.64 -1.227,-0.74 -2.191,-1.89 -3.042,-3.05 -0.798,-1.08 -1.405,-2.32 -1.845,-3.59 -0.8,-2.31 -1.639,-4.66 -1.853,-7.1 -0.408,-4.64 -0.427,-9.34 0,-13.98 0.501,-5.45 1.621,-10.83 2.773,-16.18 0.678,-3.16 1.726,-6.22 2.708,-9.3 0.674,-2.11 1.407,-4.21 2.257,-6.26 0.572,-1.37 1.213,-2.73 2.001,-4 2.583,-4.15 5.811,-7.92 8.098,-12.24 0.476,-0.9 0.377,-2.12 -0.009,-3.06 -0.177,-0.43 -0.944,-0.51 -1.37,-0.31 -1.403,0.64 -2.868,1.43 -3.78,2.67 -3.543,4.85 -5.984,10.43 -9.407,15.36 -1.101,1.59 -2.654,2.81 -4.095,4.09 -0.927,0.83 -2.312,1.19 -2.989,2.23 -0.249,0.38 0.905,0.51 1.326,0.33 0.793,-0.33 1.197,-1.26 1.945,-1.68 0.308,-0.17 0.809,-0.25 1.057,0 0.337,0.34 0.441,0.93 0.333,1.4 -0.873,3.79 -2.293,7.43 -3.237,11.2 -0.778,3.1 -1.376,6.25 -1.925,9.4 -0.655,3.77 -1.37,7.54 -1.686,11.35 -0.248,2.98 -0.357,6.01 0,8.98 0.462,3.86 1.134,7.74 2.442,11.4 0.945,2.64 2.509,5.06 4.236,7.28 0.757,0.96 1.948,1.53 3.058,2.06 2.168,1.03 4.395,2 6.722,2.59 0.388,0.1 0.628,-0.64 1.028,-0.62 0.716,0.04 1.291,0.7 2.003,0.78 1.654,0.19 3.339,0.19 4.993,0 0.713,-0.08 1.288,-0.74 2.004,-0.78 0.404,-0.02 0.642,0.72 1.037,0.63 2.719,-0.61 5.21,-2.04 7.929,-2.66 0.393,-0.09 0.663,0.79 1.034,0.63 2.143,-0.92 3.915,-2.54 5.979,-3.62 0.138,-0.08 0.34,0.14 0.358,0.3 0.117,1.02 0.22,2.07 0.028,3.08 -0.215,1.14 -0.93,2.13 -1.228,3.25 -2.494,9.38 -4.928,18.77 -7.14,28.22 -1.584,6.77 -2.694,13.64 -4.244,20.41 -0.238,1.04 -1.042,1.94 -1.113,3 -0.071,1.05 0.7,2.03 0.703,3.09 0,0.39 -0.641,0.56 -0.695,0.94 -0.23,1.66 -0.295,3.36 -0.133,5.03 0.071,0.73 0.958,1.32 0.82,2.04 -0.842,4.41 -3.128,8.5 -3.685,12.96 -0.167,1.34 0.928,2.55 1.6,3.72 0.299,0.53 0.707,1.07 1.268,1.28 M 474.543,1664 v 0 c -1.366,-0.05 -2.792,0.27 -4.097,-0.14 -1.686,-0.52 -3.179,-1.56 -4.63,-2.57 -0.813,-0.57 -1.515,-1.3 -2.101,-2.1 -1.066,-1.45 -2.108,-2.96 -2.821,-4.61 -0.828,-1.92 -1.322,-3.98 -1.763,-6.02 -0.148,-0.69 -0.27,-1.47 0.007,-2.11 1.277,-3 2.929,-5.83 4.575,-8.64 1.216,-2.07 2.523,-4.1 4.002,-6 0.897,-1.15 1.973,-2.16 3.095,-3.1 0.754,-0.62 1.805,-0.85 2.498,-1.54 0.738,-0.74 0.849,-2.02 1.689,-2.65 0.41,-0.3 1.081,0.56 1.506,0.28 1.086,-0.72 1.57,-2.1 2.547,-2.96 2.471,-2.18 5.155,-4.11 7.758,-6.12 1.32,-1.03 2.607,-2.1 4.008,-3.01 1.397,-0.9 3.02,-1.44 4.368,-2.42 1.225,-0.89 2.059,-2.25 3.288,-3.13 0.286,-0.21 0.794,-0.23 1.057,0 0.352,0.32 0.415,0.87 0.455,1.34 0.114,1.33 0.173,2.68 0.001,4 -0.093,0.71 -0.74,1.28 -0.784,2 -0.024,0.39 0.598,0.61 0.598,1 0,0.39 -0.606,0.61 -0.599,1 0.008,0.41 0.677,0.64 0.64,1.04 -0.328,3.57 -0.955,7.1 -1.709,10.6 -0.446,2.08 -1.15,4.09 -1.882,6.08 -0.872,2.38 -1.837,4.72 -2.923,7.01 -2.236,4.7 -4.518,9.39 -7.038,13.95 -0.364,0.66 -1.149,1.01 -1.573,1.63 -0.707,1.04 -0.895,2.44 -1.791,3.32 -1.553,1.53 -3.391,2.82 -5.37,3.73 m 322.024,-9.01 v 0 c -1.711,0.01 -3.456,0.35 -5.132,0.01 -1.004,-0.2 -1.817,-0.96 -2.636,-1.58 -1.381,-1.03 -2.73,-2.13 -3.944,-3.35 -1.349,-1.37 -3.014,-2.62 -3.718,-4.4 -0.621,-1.58 -0.291,-3.42 -0.016,-5.09 0.28,-1.7 0.965,-3.31 1.66,-4.89 1.43,-3.23 2.975,-6.43 4.702,-9.52 1.585,-2.83 3.263,-5.63 5.221,-8.22 0.616,-0.82 1.696,-1.16 2.419,-1.88 0.662,-0.67 1.004,-1.61 1.699,-2.24 0.774,-0.69 1.876,-0.96 2.639,-1.67 2.697,-2.5 4.528,-6.04 7.692,-7.92 0.829,-0.49 1.242,1.5 1.698,2.35 0.167,0.31 0.123,0.7 0.123,1.06 0.002,9.01 1.113,18.12 -0.12,27.05 -0.716,5.19 -3.436,9.93 -5.637,14.69 -0.7,1.51 -1.728,2.93 -3.003,4 m 46.309,-12.27 v 0 c -1.241,-0.57 -2.644,-0.86 -3.724,-1.7 -1.903,-1.46 -3.526,-3.27 -5.095,-5.09 -0.669,-0.78 -1.4,-1.63 -1.577,-2.64 -0.407,-2.31 -0.624,-4.75 -0.124,-7.04 1.294,-5.94 2.992,-11.84 5.451,-17.4 1.811,-4.09 4.632,-7.67 7.25,-11.3 0.743,-1.03 1.68,-1.98 2.782,-2.61 0.275,-0.16 0.638,0.29 0.752,0.58 0.816,2.11 1.531,4.27 1.983,6.49 1.091,5.35 1.864,10.76 2.638,16.17 0.145,1.01 0.309,2.05 0.116,3.05 -1.018,5.29 -2.16,10.57 -3.731,15.72 -0.347,1.14 -1.222,2.05 -1.97,2.98 -0.684,0.85 -1.365,1.76 -2.303,2.31 m -36.438,-51.65 v 0 c -0.672,0.33 -1.304,0.76 -2.017,0.99 -0.335,0.11 -0.771,0.21 -1.055,0 -2.226,-1.63 -6.722,-2.64 -6.294,-5.37 1.244,-7.93 6.83,-14.53 10.534,-21.65 0.349,-0.68 1.157,-1.01 1.576,-1.64 0.924,-1.38 1.465,-3 2.423,-4.36 0.463,-0.66 1.053,-1.94 1.789,-1.62 2.273,1 3.864,3.13 5.633,4.87 0.697,0.69 1.458,1.44 1.729,2.38 0.374,1.29 0.269,2.7 0.123,4.05 -0.078,0.71 -0.74,1.28 -0.784,2 -0.024,0.39 0.811,0.68 0.598,1 -1.074,1.64 -2.891,2.69 -4.049,4.27 -0.873,1.2 -1.41,2.61 -1.978,3.98 -0.607,1.46 -0.597,3.22 -1.541,4.5 m -377.694,5.73 v 0 c -2.363,-0.04 -4.787,0.41 -7.091,-0.12 -1.721,-0.39 -3.227,-1.5 -4.63,-2.57 -1.537,-1.18 -2.909,-2.58 -4.105,-4.11 -1.376,-1.75 -2.794,-3.56 -3.563,-5.65 -0.469,-1.28 -0.302,-2.76 -0.016,-4.09 0.563,-2.62 1.55,-5.14 2.534,-7.64 0.547,-1.39 1.203,-2.75 2.046,-3.98 0.453,-0.67 1.046,-1.31 1.785,-1.62 0.281,-0.12 0.603,0.28 0.73,0.55 0.958,2.09 1.181,4.53 2.475,6.42 1.618,2.36 3.559,4.71 6.076,6.08 3.578,1.95 7.712,2.68 11.683,3.59 0.396,0.09 0.606,-0.68 1.012,-0.68 0.704,0 1.295,0.67 2,0.68 0.71,0.01 1.33,-0.53 2.033,-0.64 0.14,-0.02 0.346,0.13 0.324,0.27 -0.192,1.25 -0.191,2.64 -0.93,3.66 -1.286,1.77 -3.356,2.82 -4.899,4.37 -0.46,0.46 -0.612,1.17 -1.075,1.63 -0.822,0.82 -1.782,1.49 -2.734,2.15 -0.843,0.59 -1.712,1.15 -2.642,1.58 m 464.95,-0.99 v 0 c 1.464,-0.91 3.31,-1.38 4.392,-2.73 0.558,-0.69 0.323,-1.85 -0.041,-2.67 -0.319,-0.71 -1.439,-0.8 -1.818,-1.48 -0.936,-1.7 -1.025,-3.79 -2.013,-5.46 -0.273,-0.46 -0.99,-0.46 -1.524,-0.51 -0.671,-0.08 -1.412,-0.16 -2.022,0.13 -1.348,0.64 -2.507,1.62 -3.664,2.56 -0.626,0.51 -1.483,0.98 -1.662,1.76 -0.42,1.85 -1.168,4.18 -0.03,5.7 1.374,1.83 4.141,1.99 6.321,2.7 m -371.918,0.15 v 0 c -0.936,-0.95 -2.031,-1.76 -2.81,-2.84 -1.032,-1.43 -1.913,-2.99 -2.573,-4.63 -0.256,-0.63 -0.188,-1.37 -0.121,-2.05 0.046,-0.47 0.061,-1.07 0.453,-1.33 0.373,-0.25 0.92,-0.02 1.337,0.14 1.33,0.54 2.471,1.52 3.845,1.93 4.028,1.19 8.611,0.79 12.277,2.84 1.022,0.58 -0.914,2.19 -1.644,3.11 -1.092,1.37 -2.153,2.97 -3.759,3.66 -1.537,0.67 -3.359,0.33 -5.023,0.13 m 10.077,-16.12 v 0 c -0.701,0 -1.417,0.14 -2.102,-0.01 -0.383,-0.08 -0.586,-0.65 -0.978,-0.65 -0.388,0 -0.601,0.52 -0.971,0.64 -0.346,0.11 -0.74,0.12 -1.09,0.02 -1.579,-0.43 -3.324,-0.62 -4.645,-1.59 -1.233,-0.9 -2.011,-2.35 -2.645,-3.74 -0.284,-0.63 -0.347,-1.47 0,-2.06 0.767,-1.3 2.201,-2.09 3.136,-3.28 0.633,-0.81 1.223,-1.69 1.536,-2.67 0.066,-0.2 -0.422,-0.28 -0.621,-0.19 -1.622,0.7 -2.912,2.44 -4.679,2.49 -0.792,0.03 -0.652,-1.6 -0.372,-2.35 0.546,-1.44 1.601,-2.68 2.685,-3.78 0.823,-0.83 1.902,-1.39 2.938,-1.94 1.196,-0.63 2.38,-1.64 3.734,-1.6 2.299,0.07 4.771,0.57 6.625,1.93 2.136,1.56 3.946,3.86 4.72,6.39 0.882,2.89 0.247,6.05 10e-4,9.06 -0.045,0.55 -0.354,1.19 -0.857,1.42 M 454.543,1566 v 0 c -1.7,-0.04 -3.467,0.34 -5.102,-0.13 -2.018,-0.59 -3.881,-1.7 -5.575,-2.94 -0.922,-0.68 -1.603,-1.68 -2.115,-2.71 -1.068,-2.13 -1.876,-4.4 -2.579,-6.69 -0.064,-0.2 0.181,-0.41 0.355,-0.54 0.93,-0.68 1.886,-1.34 2.919,-1.85 0.318,-0.16 0.704,-0.12 1.06,-0.13 3.33,-0.03 6.663,-0.14 9.99,0.01 0.521,0.02 1.077,0.15 1.486,0.48 1.203,0.95 2.469,1.93 3.249,3.25 1.22,2.07 1.915,4.41 2.631,6.7 0.209,0.66 0.444,1.47 0.12,2.09 -0.518,1 -1.383,1.92 -2.428,2.32 m 211.484,-8.33 v 0 c 1.074,-3.33 2.285,-6.62 3.222,-10 1.265,-4.55 2.006,-9.25 3.381,-13.77 0.783,-2.57 1.042,-9.23 3.077,-7.47 2.586,2.25 0.553,6.87 0.151,10.27 -0.435,3.69 -1.274,7.37 -2.644,10.82 -1.516,3.82 -3.852,7.26 -5.939,10.8 -0.17,0.29 -0.496,0.77 -0.793,0.62 m 241.975,-1.82 v 0 c 0.503,-0.16 1.059,-0.2 1.509,-0.47 0.374,-0.23 0.781,-0.56 0.874,-0.98 0.216,-1 0.164,-2.05 10e-4,-3.06 -0.062,-0.38 -0.65,-0.58 -0.651,-0.97 -0.002,-0.39 0.525,-0.6 0.642,-0.97 0.106,-0.34 0.114,-0.72 0,-1.06 -0.126,-0.37 -0.558,-0.57 -0.685,-0.94 -0.119,-0.34 -0.123,-0.74 -0.019,-1.09 0.602,-2 1.541,-3.9 2.12,-5.91 0.923,-3.2 1.356,-6.54 2.38,-9.72 0.578,-1.79 1.83,-3.31 2.403,-5.1 2.138,-6.68 3.615,-13.55 5.711,-20.24 0.848,-2.7 2.375,-5.17 3.112,-7.91 0.21,-0.78 0.29,-1.89 -0.336,-2.4 -0.5,-0.4 -1.454,0.12 -1.816,0.66 -1.672,2.46 -2.833,5.23 -4.039,7.95 -0.927,2.1 -1.427,4.36 -2.348,6.46 -2.747,6.24 -6.133,12.2 -8.65,18.54 -2.024,5.1 -3.358,10.44 -4.944,15.69 -0.596,1.98 -1.246,3.95 -1.601,5.98 -0.177,1.01 -0.391,2.14 0.017,3.09 0.436,1 1.304,1.92 2.326,2.32 m -138.645,-16.3 v 0 c 0.008,-1.03 0.192,-2.07 0.023,-3.08 -0.065,-0.38 -0.567,-0.57 -0.695,-0.94 -0.115,-0.34 -0.209,-0.78 10e-4,-1.06 1.749,-2.34 4.635,-3.92 5.738,-6.63 0.364,-0.9 -1.424,-1.41 -2.343,-1.7 -1.113,-0.36 -2.779,0.74 -3.505,-0.18 -1.727,-2.18 -1.795,-5.27 -2.85,-7.84 -0.046,-0.12 -0.301,-0.11 -0.365,-0.01 -1.987,3.2 -3.326,6.82 -5.692,9.75 -0.37,0.46 -1.033,-0.62 -1.615,-0.71 -1.016,-0.16 -2.095,-0.29 -3.084,-0.02 -1.218,0.35 -2.295,1.1 -3.328,1.83 -0.142,0.1 -0.114,0.4 0.012,0.52 1.825,1.75 4.128,3.03 5.725,4.99 0.431,0.53 0.137,1.39 10e-4,2.06 -0.143,0.69 -0.739,1.26 -0.821,1.97 -0.053,0.47 0.024,1.12 0.44,1.33 0.458,0.24 1.055,-0.08 1.508,-0.33 1.229,-0.66 2.192,-1.78 3.465,-2.36 0.417,-0.19 0.946,-0.01 1.363,0.18 1.607,0.72 2.985,1.92 4.638,2.54 m -7.684,-4.16 v 0 c -0.578,-1.08 -0.942,-2.3 -1.736,-3.23 -0.217,-0.25 -0.728,0.22 -1,0.03 -0.971,-0.69 -1.802,-1.58 -2.524,-2.52 -0.165,-0.22 -0.296,-0.81 -0.025,-0.82 1.698,-0.04 3.403,1.11 5.05,0.69 1.24,-0.31 1.963,-1.66 2.761,-2.66 0.753,-0.95 0.709,-3.51 1.85,-3.12 1.501,0.52 0.568,3.45 1.848,4.4 0.95,0.7 2.331,-0.46 3.511,-0.45 0.463,0 1.549,0.08 1.304,0.47 -0.915,1.47 -2.746,2.17 -3.805,3.54 -0.829,1.07 -0.603,2.96 -1.759,3.67 -0.656,0.4 -1.054,-1.15 -1.71,-1.55 -0.294,-0.18 -0.685,-0.17 -1.026,-0.12 -0.513,0.07 -1.04,0.2 -1.482,0.47" />
  </g>
</svg>
